# Blender v2.82 (sub 7) OBJ File: 'bow_01.blend'
# www.blender.org
mtllib bow_01.mtl
o Bow_01_Cube.013
v -0.230759 -0.414930 -0.049150
v -0.230759 -0.414930 0.049150
v -0.336238 -0.414930 -0.049150
v -0.336238 -0.414930 0.049150
v -0.197222 -0.473193 -0.061863
v -0.197222 -0.473193 0.061863
v -0.362706 -0.473193 -0.061893
v -0.362706 -0.473193 0.061893
v -0.161969 -0.793338 -0.075211
v -0.161969 -0.793338 0.075211
v -0.290982 -0.793338 -0.075211
v -0.290982 -0.793338 0.075211
v -0.064896 -1.171891 -0.065066
v -0.064896 -1.171891 0.065066
v -0.173434 -1.171891 -0.065066
v -0.173434 -1.171891 0.065066
v 0.063469 -1.554911 -0.049521
v 0.063469 -1.554911 0.049521
v -0.015867 -1.554911 -0.049521
v -0.015867 -1.554911 0.049521
v 0.243287 -1.927925 -0.033531
v 0.243287 -1.927925 0.033531
v 0.194310 -1.942010 -0.033531
v 0.194310 -1.942010 0.033531
v 0.511243 -2.381961 -0.004693
v 0.511243 -2.381961 0.004693
v 0.503913 -2.381961 -0.004693
v 0.503913 -2.381961 0.004693
v -0.357696 -0.414930 0.000000
v -0.209290 -0.414930 0.000000
v -0.383296 -0.473193 0.000000
v -0.176655 -0.473193 0.000000
v -0.331958 -0.793338 0.000000
v -0.121014 -0.793338 0.000000
v -0.214456 -1.171891 0.000000
v -0.023944 -1.171891 0.000000
v -0.051139 -1.554911 0.000000
v 0.098648 -1.554911 0.000000
v 0.166537 -1.949958 0.000000
v 0.270966 -1.920004 0.000000
v 0.496446 -2.381961 0.000000
v 0.518709 -2.381961 0.000000
v -0.283513 -0.414930 -0.070100
v -0.283513 -0.414930 0.070100
v -0.279978 -0.473193 -0.103320
v -0.279978 -0.473193 0.103320
v -0.226553 -0.793338 -0.115067
v -0.226553 -0.793338 0.115067
v -0.119255 -1.171891 -0.104922
v -0.119255 -1.171891 0.104922
v 0.023714 -1.554911 -0.083864
v 0.023714 -1.554911 0.083864
v 0.218724 -1.934989 -0.061809
v 0.218724 -1.934989 0.061809
v 0.507578 -2.381961 -0.012160
v 0.507578 -2.381961 0.012160
v 0.511311 -2.381961 0.000000
v -0.230759 0.414955 -0.049150
v -0.230759 0.414955 0.049150
v -0.336238 0.414955 -0.049150
v -0.336238 0.414955 0.049150
v -0.197222 0.473218 -0.061863
v -0.197222 0.473218 0.061863
v -0.362706 0.473218 -0.061893
v -0.362706 0.473218 0.061893
v -0.283513 0.000013 0.070100
v -0.283513 0.000013 -0.070100
v -0.209290 0.000013 0.000000
v -0.357696 0.000013 0.000000
v -0.161969 0.793363 -0.075211
v -0.161969 0.793363 0.075211
v -0.290982 0.793363 -0.075211
v -0.290982 0.793363 0.075211
v -0.064896 1.171916 -0.065066
v -0.064896 1.171916 0.065066
v -0.173434 1.171916 -0.065066
v -0.173434 1.171916 0.065066
v 0.063469 1.554937 -0.049521
v 0.063469 1.554937 0.049521
v -0.015867 1.554937 -0.049521
v -0.015867 1.554937 0.049521
v 0.243287 1.927950 -0.033531
v 0.243287 1.927950 0.033531
v 0.194310 1.942035 -0.033531
v 0.194310 1.942035 0.033531
v 0.511243 2.381986 -0.004693
v 0.511243 2.381986 0.004693
v 0.503913 2.381986 -0.004693
v 0.503913 2.381986 0.004693
v -0.357696 0.414955 0.000000
v -0.209290 0.414955 0.000000
v -0.383296 0.473218 0.000000
v -0.176655 0.473218 0.000000
v -0.336238 0.000013 0.049150
v -0.336238 0.000013 -0.049150
v -0.331958 0.793363 0.000000
v -0.121014 0.793363 0.000000
v -0.214456 1.171916 0.000000
v -0.023944 1.171916 0.000000
v -0.051139 1.554937 0.000000
v 0.098648 1.554937 0.000000
v 0.166537 1.949983 0.000000
v 0.270966 1.920029 0.000000
v 0.496446 2.381986 0.000000
v 0.518709 2.381986 0.000000
v -0.283513 0.414955 -0.070100
v -0.283513 0.414955 0.070100
v -0.279978 0.473218 -0.103320
v -0.279978 0.473218 0.103320
v -0.230759 0.000013 0.049150
v -0.230759 0.000013 -0.049150
v -0.226553 0.793363 -0.115067
v -0.226553 0.793363 0.115067
v -0.119255 1.171916 -0.104922
v -0.119255 1.171916 0.104922
v 0.023714 1.554937 -0.083864
v 0.023714 1.554937 0.083864
v 0.218724 1.935014 -0.061809
v 0.218724 1.935014 0.061809
v 0.507578 2.381986 -0.012160
v 0.507578 2.381986 0.012160
v 0.511311 2.381986 0.000000
v 0.466362 -2.340523 0.007415
v 0.466362 2.340140 0.007415
v 0.466362 -2.340523 -0.007415
v 0.466362 2.340140 -0.007415
v 0.481192 -2.340523 0.007415
v 0.481192 2.340140 0.007415
v 0.481192 -2.340523 -0.007415
v 0.481192 2.340140 -0.007415
vt 0.375000 0.500000
vt 0.375000 0.375000
vt 0.375000 0.375000
vt 0.375000 0.875000
vt 0.375000 1.000000
vt 0.375000 0.875000
vt 0.375000 0.875000
vt 0.375000 1.000000
vt 0.375000 0.250000
vt 0.375000 0.125000
vt 0.375000 0.125000
vt 0.375000 0.625000
vt 0.375000 0.750000
vt 0.375000 0.625000
vt 0.375000 0.625000
vt 0.375000 0.750000
vt 0.375000 0.625000
vt 0.375000 0.250000
vt 0.375000 0.125000
vt 0.375000 0.750000
vt 0.375000 0.500000
vt 0.375000 0.375000
vt 0.375000 0.500000
vt 0.375000 0.375000
vt 0.375000 1.000000
vt 0.375000 0.875000
vt 0.375000 0.250000
vt 0.375000 0.125000
vt 0.242145 0.750000
vt 0.109291 0.750000
vt 0.242145 0.750000
vt 0.109291 0.500000
vt 0.109291 0.625000
vt 0.109291 0.625000
vt 0.375000 0.750000
vt 0.375000 0.625000
vt 0.375000 0.500000
vt 0.242145 0.500000
vt 0.242145 0.500000
vt 0.109291 0.500000
vt 0.109291 0.625000
vt 0.375000 0.750000
vt 0.375000 0.625000
vt 0.375000 0.500000
vt 0.242145 0.500000
vt 0.109291 0.750000
vt 0.242145 0.750000
vt 0.242145 0.625000
vt 0.375000 0.500000
vt 0.109291 0.750000
vt 0.375000 0.000000
vt 0.375000 0.000000
vt 0.375000 0.000000
vt 0.375000 0.000000
vt 0.109291 0.500000
vt 0.375000 0.250000
vt 0.375000 0.750000
vt 0.375000 0.375000
vt 0.375000 0.500000
vt 0.375000 0.375000
vt 0.375000 0.875000
vt 0.375000 1.000000
vt 0.375000 1.000000
vt 0.375000 0.875000
vt 0.375000 1.000000
vt 0.375000 0.125000
vt 0.375000 0.250000
vt 0.375000 0.125000
vt 0.375000 0.625000
vt 0.375000 0.750000
vt 0.375000 0.750000
vt 0.375000 0.625000
vt 0.375000 0.750000
vt 0.375000 0.750000
vt 0.375000 0.125000
vt 0.375000 0.250000
vt 0.375000 0.625000
vt 0.375000 0.375000
vt 0.375000 0.500000
vt 0.375000 0.375000
vt 0.375000 0.500000
vt 0.375000 0.875000
vt 0.375000 1.000000
vt 0.375000 0.125000
vt 0.375000 0.250000
vt 0.242145 0.750000
vt 0.109291 0.750000
vt 0.109291 0.750000
vt 0.109291 0.625000
vt 0.109291 0.500000
vt 0.109291 0.625000
vt 0.375000 0.625000
vt 0.375000 0.750000
vt 0.242145 0.500000
vt 0.375000 0.500000
vt 0.242145 0.500000
vt 0.109291 0.625000
vt 0.109291 0.500000
vt 0.375000 0.625000
vt 0.375000 0.750000
vt 0.242145 0.500000
vt 0.375000 0.500000
vt 0.242145 0.750000
vt 0.109291 0.750000
vt 0.242145 0.625000
vt 0.375000 0.625000
vt 0.375000 0.500000
vt 0.375000 0.000000
vt 0.375000 0.000000
vt 0.375000 0.000000
vt 0.109291 0.500000
vt 0.242145 0.750000
vt 0.375000 0.875000
vt 0.375000 0.250000
vt 0.375000 1.000000
vt 0.375000 0.000000
vt 0.375000 0.125000
vt 0.375000 0.625000
vt 0.375000 0.500000
vt 0.375000 0.375000
vt 0.375000 1.000000
vt 0.375000 0.875000
vt 0.375000 0.625000
vt 0.375000 0.750000
vt 0.375000 0.875000
vt 0.375000 0.000000
vt 0.375000 0.125000
vt 0.375000 0.250000
vt 0.375000 0.375000
vt 0.375000 0.750000
vt 0.375000 1.000000
vt 0.375000 0.500000
vt 0.375000 0.250000
vt 0.375000 0.125000
vt 0.375000 0.250000
vt 0.375000 0.625000
vt 0.375000 0.750000
vt 0.375000 0.500000
vt 0.375000 0.375000
vt 0.375000 1.000000
vt 0.375000 0.875000
vt 0.375000 0.000000
vt 0.375000 0.000000
vt 0.625000 0.000000
vt 0.375000 0.250000
vt 0.375000 0.000000
vt 0.625000 0.250000
vt 0.375000 0.500000
vt 0.625000 0.500000
vt 0.375000 0.750000
vt 0.625000 0.750000
vt 0.375000 1.000000
vt 0.125000 0.750000
vt 0.125000 0.500000
vt 0.875000 0.500000
vt 0.625000 1.000000
vt 0.875000 0.750000
vn 0.4453 0.1069 -0.8890
vn -0.5822 -0.1862 0.7914
vn -0.5252 -0.0565 0.8491
vn -0.9381 -0.1504 -0.3121
vn 0.8682 0.1509 0.4728
vn 0.7888 0.2525 0.5604
vn -0.8472 -0.2630 -0.4616
vn 0.8271 0.2121 0.5206
vn 0.5210 0.1251 -0.8443
vn 0.5823 0.1737 -0.7942
vn -0.6301 -0.2751 0.7262
vn -0.7957 -0.3393 -0.5017
vn -0.6541 -0.3738 0.6576
vn -0.7431 -0.4095 -0.5293
vn 0.6900 0.3256 0.6465
vn 0.6276 0.2799 -0.7265
vn -0.6200 -0.4734 -0.6257
vn 0.5117 0.2744 0.8142
vn 0.6607 0.3534 -0.6622
vn -0.7599 -0.5325 0.3729
vn 0.0000 -1.0000 0.0000
vn 0.6766 0.3585 -0.6432
vn -0.4889 -0.3950 0.7778
vn 0.7650 0.3455 -0.5435
vn -0.6632 -0.3866 0.6409
vn -0.7667 -0.3376 0.5461
vn 0.8591 0.2078 -0.4678
vn -0.8152 -0.2669 0.5140
vn 0.8187 0.2535 -0.5153
vn 0.9424 0.1168 -0.3133
vn -0.8647 -0.1741 0.4711
vn 0.8024 0.4485 0.3938
vn -0.6074 -0.4694 -0.6409
vn -0.6112 -0.3609 -0.7044
vn 0.6818 0.3001 0.6672
vn 0.6424 0.1851 0.7437
vn -0.5711 -0.2665 -0.7764
vn -0.5172 -0.1830 -0.8361
vn 0.5229 0.0929 0.8473
vn 0.5864 0.1289 0.7997
vn -0.4469 -0.0630 -0.8924
vn 0.4453 -0.1069 -0.8890
vn -0.5172 0.1830 0.8361
vn -0.4469 0.0630 0.8924
vn -0.9381 0.1504 -0.3121
vn 0.9424 -0.1168 0.3133
vn 0.8187 -0.2535 0.5153
vn -0.8472 0.2630 -0.4616
vn 0.8591 -0.2078 0.4678
vn 0.5210 -0.1251 -0.8443
vn 0.5823 -0.1737 -0.7942
vn -0.5711 0.2665 0.7764
vn -0.7957 0.3393 -0.5017
vn -0.6112 0.3609 0.7044
vn -0.7431 0.4095 -0.5293
vn 0.7650 -0.3455 0.5435
vn 0.6276 -0.2799 -0.7265
vn -0.6200 0.4734 -0.6257
vn 0.6766 -0.3585 0.6432
vn 0.6607 -0.3534 -0.6622
vn -0.6073 0.4694 0.6409
vn 0.0000 1.0000 0.0000
vn 0.6766 -0.3585 -0.6432
vn -0.6200 0.4734 0.6257
vn 0.7650 -0.3455 -0.5435
vn -0.7431 0.4095 0.5293
vn -0.7957 0.3393 0.5017
vn 0.8591 -0.2078 -0.4678
vn -0.8472 0.2630 0.4616
vn 0.8187 -0.2535 -0.5153
vn 0.9424 -0.1168 -0.3133
vn -0.9381 0.1504 0.3121
vn 0.6607 -0.3534 0.6622
vn -0.6073 0.4694 -0.6409
vn -0.6112 0.3609 -0.7044
vn 0.6276 -0.2799 0.7265
vn 0.5823 -0.1737 0.7942
vn -0.5711 0.2665 -0.7764
vn -0.5172 0.1830 -0.8361
vn 0.4453 -0.1069 0.8890
vn 0.5210 -0.1251 0.8443
vn -0.4469 0.0630 -0.8924
vn 0.5229 0.0929 -0.8473
vn -0.5172 -0.1830 0.8361
vn -0.4469 -0.0630 0.8924
vn -0.8647 -0.1741 -0.4711
vn 0.9424 0.1168 0.3133
vn 0.8187 0.2535 0.5153
vn -0.8152 -0.2669 -0.5140
vn 0.8591 0.2078 0.4678
vn 0.5864 0.1289 -0.7997
vn 0.6424 0.1851 -0.7437
vn -0.5711 -0.2665 0.7764
vn -0.7667 -0.3376 -0.5461
vn -0.6112 -0.3609 0.7044
vn -0.6632 -0.3866 -0.6409
vn 0.7650 0.3455 0.5435
vn 0.6818 0.3001 -0.6672
vn -0.4889 -0.3950 -0.7778
vn 0.6766 0.3585 0.6432
vn 0.8024 0.4485 -0.3938
vn -0.6074 -0.4694 0.6409
vn 0.5117 0.2744 -0.8142
vn -0.6200 -0.4734 0.6257
vn 0.6900 0.3256 -0.6465
vn -0.7431 -0.4095 0.5293
vn -0.7957 -0.3393 0.5017
vn 0.8271 0.2121 -0.5206
vn -0.8472 -0.2630 0.4616
vn 0.7888 0.2525 -0.5604
vn 0.8682 0.1509 -0.4728
vn -0.9381 -0.1504 0.3121
vn 0.6607 0.3534 0.6622
vn -0.7599 -0.5325 -0.3729
vn -0.6541 -0.3738 -0.6576
vn 0.6276 0.2799 0.7265
vn 0.5823 0.1737 0.7942
vn -0.6301 -0.2751 -0.7262
vn -0.5822 -0.1862 -0.7914
vn 0.4453 0.1069 0.8890
vn 0.5210 0.1251 0.8443
vn -0.5252 -0.0565 -0.8491
vn 0.5229 -0.0929 -0.8473
vn -0.5822 0.1862 0.7914
vn -0.5252 0.0565 0.8491
vn -0.8647 0.1741 -0.4711
vn 0.8682 -0.1509 0.4728
vn 0.7888 -0.2525 0.5604
vn -0.8152 0.2669 -0.5140
vn 0.8271 -0.2121 0.5206
vn 0.5864 -0.1289 -0.7997
vn 0.6424 -0.1851 -0.7437
vn -0.6301 0.2751 0.7262
vn -0.7667 0.3376 -0.5461
vn -0.6541 0.3738 0.6576
vn -0.6632 0.3866 -0.6409
vn 0.6900 -0.3256 0.6465
vn 0.6818 -0.3001 -0.6672
vn -0.4889 0.3950 -0.7778
vn 0.5117 -0.2744 0.8141
vn 0.8024 -0.4485 -0.3938
vn -0.7599 0.5325 0.3729
vn 0.5117 -0.2744 -0.8141
vn -0.4889 0.3950 0.7778
vn 0.6900 -0.3256 -0.6465
vn -0.6632 0.3866 0.6409
vn -0.7667 0.3376 0.5461
vn 0.8271 -0.2121 -0.5206
vn -0.8152 0.2669 0.5140
vn 0.7888 -0.2525 -0.5604
vn 0.8682 -0.1509 -0.4728
vn -0.8647 0.1741 0.4711
vn 0.8024 -0.4485 0.3938
vn -0.7599 0.5325 -0.3729
vn -0.6541 0.3738 -0.6576
vn 0.6818 -0.3001 0.6672
vn 0.6424 -0.1851 0.7437
vn -0.6301 0.2751 -0.7262
vn -0.5822 0.1862 -0.7914
vn 0.5229 -0.0929 0.8473
vn 0.5864 -0.1289 0.7997
vn -0.5252 0.0565 -0.8491
vn -0.8758 0.3848 -0.2913
vn 0.8379 0.4693 0.2786
vn 0.3231 0.4835 -0.8136
vn -0.3293 0.4525 0.8287
vn 0.9164 0.0000 -0.4003
vn 0.3691 0.0000 0.9294
vn -0.9165 0.0000 0.4001
vn -0.3693 0.0000 -0.9293
vn 0.9164 0.0000 0.4003
vn -0.3693 0.0000 0.9293
vn 0.7806 0.5237 -0.3410
vn -0.8185 0.4500 0.3573
vn 0.3691 0.0000 -0.9294
vn -0.9165 0.0000 -0.4001
vn 0.4080 0.4126 0.8144
vn -0.4159 0.3706 -0.8305
vn -0.8185 -0.4500 -0.3573
vn 0.7806 -0.5237 0.3410
vn 0.3231 -0.4835 -0.8136
vn -0.3293 -0.4525 0.8287
vn 0.7806 -0.5237 -0.3410
vn -0.8185 -0.4500 0.3573
vn 0.3231 -0.4835 0.8136
vn -0.3293 -0.4525 -0.8287
vn -0.8185 0.4500 -0.3573
vn 0.7806 0.5237 0.3410
vn 0.4080 0.4126 -0.8144
vn -0.4159 0.3706 0.8305
vn 0.8379 0.4693 -0.2786
vn -0.8758 0.3848 0.2913
vn 0.3231 0.4835 0.8136
vn -0.3293 0.4525 -0.8287
vn -0.8758 -0.3848 -0.2913
vn 0.8379 -0.4693 0.2786
vn 0.4080 -0.4126 -0.8144
vn -0.4159 -0.3706 0.8305
vn 0.8379 -0.4693 -0.2786
vn -0.8758 -0.3848 0.2913
vn 0.4080 -0.4126 0.8144
vn -0.4159 -0.3706 -0.8305
vn -1.0000 0.0000 0.0000
vn 0.0000 0.0000 -1.0000
vn 1.0000 0.0000 0.0000
vn 0.0000 0.0000 1.0000
usemtl Wood
s off
f 5/1/1 47/2/1 45/3/1
f 48/4/2 16/5/2 50/6/2
f 46/7/3 12/8/3 48/4/3
f 7/9/4 33/10/4 31/11/4
f 32/12/5 10/13/5 34/14/5
f 36/15/6 18/16/6 38/17/6
f 11/18/7 35/19/7 33/10/7
f 34/14/8 14/20/8 36/15/8
f 9/21/9 49/22/9 47/2/9
f 13/23/10 51/24/10 49/22/10
f 50/6/11 20/25/11 52/26/11
f 15/27/12 37/28/12 35/19/12
f 52/29/13 24/30/13 54/31/13
f 19/32/14 39/33/14 37/34/14
f 38/17/15 22/35/15 40/36/15
f 17/37/16 53/38/16 51/39/16
f 23/40/17 41/41/17 39/33/17
f 40/36/18 26/42/18 42/43/18
f 21/44/19 55/45/19 53/38/19
f 54/31/20 28/46/20 56/47/20
f 57/48/21 26/42/21 56/47/21
f 25/49/21 57/48/21 55/45/21
f 40/36/22 25/49/22 21/44/22
f 24/30/23 41/41/23 28/46/23
f 38/17/24 21/44/24 17/37/24
f 20/50/25 39/33/25 24/30/25
f 16/51/26 37/28/26 20/52/26
f 34/14/27 13/23/27 9/21/27
f 12/53/28 35/19/28 16/51/28
f 36/15/29 17/37/29 13/23/29
f 32/12/30 9/21/30 5/1/30
f 8/54/31 33/10/31 12/53/31
f 27/55/21 57/48/21 41/41/21
f 57/48/21 28/46/21 41/41/21
f 22/35/32 56/47/32 26/42/32
f 53/38/33 27/55/33 23/40/33
f 51/39/34 23/40/34 19/32/34
f 18/16/35 54/31/35 22/35/35
f 14/20/36 52/26/36 18/16/36
f 49/22/37 19/56/37 15/27/37
f 47/2/38 15/27/38 11/18/38
f 6/57/39 48/4/39 10/13/39
f 10/13/40 50/6/40 14/20/40
f 45/3/41 11/18/41 7/9/41
f 112/58/42 62/59/42 108/60/42
f 113/61/43 77/62/43 73/63/43
f 109/64/44 73/63/44 65/65/44
f 96/66/45 64/67/45 92/68/45
f 93/69/46 71/70/46 63/71/46
f 99/72/47 79/73/47 75/74/47
f 98/75/48 72/76/48 96/66/48
f 97/77/49 75/74/49 71/70/49
f 114/78/50 70/79/50 112/58/50
f 116/80/51 74/81/51 114/78/51
f 115/82/52 81/83/52 77/62/52
f 100/84/53 76/85/53 98/75/53
f 117/86/54 85/87/54 81/88/54
f 102/89/55 80/90/55 100/91/55
f 101/92/56 83/93/56 79/73/56
f 118/94/57 78/95/57 116/96/57
f 104/97/58 84/98/58 102/89/58
f 103/99/59 87/100/59 83/93/59
f 120/101/60 82/102/60 118/94/60
f 119/103/61 89/104/61 85/87/61
f 122/105/62 87/100/62 105/106/62
f 122/105/62 86/107/62 120/101/62
f 86/107/63 103/99/63 82/102/63
f 85/87/64 104/97/64 102/89/64
f 82/102/65 101/92/65 78/95/65
f 81/88/66 102/89/66 100/91/66
f 77/108/67 100/84/67 98/75/67
f 74/81/68 97/77/68 70/79/68
f 73/109/69 98/75/69 96/66/69
f 78/95/70 99/72/70 74/81/70
f 70/79/71 93/69/71 62/59/71
f 65/110/72 96/66/72 92/68/72
f 88/111/62 122/105/62 120/101/62
f 89/104/62 122/105/62 104/97/62
f 83/93/73 121/112/73 119/103/73
f 88/111/74 118/94/74 84/98/74
f 84/98/75 116/96/75 80/90/75
f 79/73/76 119/103/76 117/86/76
f 75/74/77 117/113/77 115/82/77
f 80/114/78 114/78/78 76/85/78
f 76/85/79 112/58/79 72/76/79
f 63/71/80 113/61/80 109/64/80
f 71/70/81 115/82/81 113/61/81
f 72/76/82 108/60/82 64/67/82
f 5/1/83 9/21/83 47/2/83
f 48/4/84 12/8/84 16/5/84
f 46/7/85 8/115/85 12/8/85
f 7/9/86 11/18/86 33/10/86
f 32/12/87 6/57/87 10/13/87
f 36/15/88 14/20/88 18/16/88
f 11/18/89 15/27/89 35/19/89
f 34/14/90 10/13/90 14/20/90
f 9/21/91 13/23/91 49/22/91
f 13/23/92 17/37/92 51/24/92
f 50/6/93 16/5/93 20/25/93
f 15/27/94 19/56/94 37/28/94
f 52/29/95 20/50/95 24/30/95
f 19/32/96 23/40/96 39/33/96
f 38/17/97 18/16/97 22/35/97
f 17/37/98 21/44/98 53/38/98
f 23/40/99 27/55/99 41/41/99
f 40/36/100 22/35/100 26/42/100
f 21/44/101 25/49/101 55/45/101
f 54/31/102 24/30/102 28/46/102
f 57/48/21 42/43/21 26/42/21
f 25/49/21 42/43/21 57/48/21
f 40/36/103 42/43/103 25/49/103
f 24/30/104 39/33/104 41/41/104
f 38/17/105 40/36/105 21/44/105
f 20/50/106 37/34/106 39/33/106
f 16/51/107 35/19/107 37/28/107
f 34/14/108 36/15/108 13/23/108
f 12/53/109 33/10/109 35/19/109
f 36/15/110 38/17/110 17/37/110
f 32/12/111 34/14/111 9/21/111
f 8/54/112 31/11/112 33/10/112
f 27/55/21 55/45/21 57/48/21
f 57/48/21 56/47/21 28/46/21
f 22/35/113 54/31/113 56/47/113
f 53/38/114 55/45/114 27/55/114
f 51/39/115 53/38/115 23/40/115
f 18/16/116 52/29/116 54/31/116
f 14/20/117 50/6/117 52/26/117
f 49/22/118 51/24/118 19/56/118
f 47/2/119 49/22/119 15/27/119
f 6/57/120 46/7/120 48/4/120
f 10/13/121 48/4/121 50/6/121
f 45/3/122 47/2/122 11/18/122
f 112/58/123 70/79/123 62/59/123
f 113/61/124 115/82/124 77/62/124
f 109/64/125 113/61/125 73/63/125
f 96/66/126 72/76/126 64/67/126
f 93/69/127 97/77/127 71/70/127
f 99/72/128 101/92/128 79/73/128
f 98/75/129 76/85/129 72/76/129
f 97/77/130 99/72/130 75/74/130
f 114/78/131 74/81/131 70/79/131
f 116/80/132 78/95/132 74/81/132
f 115/82/133 117/113/133 81/83/133
f 100/84/134 80/114/134 76/85/134
f 117/86/135 119/103/135 85/87/135
f 102/89/136 84/98/136 80/90/136
f 101/92/137 103/99/137 83/93/137
f 118/94/138 82/102/138 78/95/138
f 104/97/139 88/111/139 84/98/139
f 103/99/140 105/106/140 87/100/140
f 120/101/141 86/107/141 82/102/141
f 119/103/142 121/112/142 89/104/142
f 122/105/62 121/112/62 87/100/62
f 122/105/62 105/106/62 86/107/62
f 86/107/143 105/106/143 103/99/143
f 85/87/144 89/104/144 104/97/144
f 82/102/145 103/99/145 101/92/145
f 81/88/146 85/87/146 102/89/146
f 77/108/147 81/116/147 100/84/147
f 74/81/148 99/72/148 97/77/148
f 73/109/149 77/108/149 98/75/149
f 78/95/150 101/92/150 99/72/150
f 70/79/151 97/77/151 93/69/151
f 65/110/152 73/109/152 96/66/152
f 88/111/62 104/97/62 122/105/62
f 89/104/62 121/112/62 122/105/62
f 83/93/153 87/100/153 121/112/153
f 88/111/154 120/101/154 118/94/154
f 84/98/155 118/94/155 116/96/155
f 79/73/156 83/93/156 119/103/156
f 75/74/157 79/73/157 117/113/157
f 80/114/158 116/80/158 114/78/158
f 76/85/159 114/78/159 112/58/159
f 63/71/160 71/70/160 113/61/160
f 71/70/161 75/74/161 115/82/161
f 72/76/162 112/58/162 108/60/162
usemtl Gray
f 29/117/163 7/9/163 31/11/163
f 30/118/164 6/57/164 32/12/164
f 1/119/165 45/3/165 43/120/165
f 4/121/166 46/7/166 44/122/166
f 1/119/167 68/123/167 30/118/167
f 2/124/168 66/125/168 44/122/168
f 4/126/169 69/127/169 29/117/169
f 3/128/170 67/129/170 43/120/170
f 30/118/171 110/130/171 2/124/171
f 44/122/172 94/131/172 4/121/172
f 30/118/173 5/1/173 1/119/173
f 29/117/174 8/54/174 4/126/174
f 43/120/175 111/132/175 1/119/175
f 29/117/176 95/133/176 3/128/176
f 2/124/177 46/7/177 6/57/177
f 3/128/178 45/3/178 7/9/178
f 90/134/179 64/67/179 60/135/179
f 91/136/180 63/71/180 59/137/180
f 108/60/181 58/138/181 106/139/181
f 109/64/182 61/140/182 107/141/182
f 68/123/167 58/138/167 91/136/167
f 66/125/168 59/137/168 107/141/168
f 69/127/169 61/142/169 90/134/169
f 67/129/170 60/135/170 106/139/170
f 110/130/171 91/136/171 59/137/171
f 94/131/172 107/141/172 61/140/172
f 62/59/183 91/136/183 58/138/183
f 65/110/184 90/134/184 61/142/184
f 111/132/175 106/139/175 58/138/175
f 95/133/176 90/134/176 60/135/176
f 59/137/185 109/64/185 107/141/185
f 60/135/186 108/60/186 106/139/186
f 29/117/187 3/128/187 7/9/187
f 30/118/188 2/124/188 6/57/188
f 1/119/189 5/1/189 45/3/189
f 4/121/190 8/115/190 46/7/190
f 1/119/167 111/132/167 68/123/167
f 2/124/168 110/130/168 66/125/168
f 4/126/169 94/143/169 69/127/169
f 3/128/170 95/133/170 67/129/170
f 30/118/171 68/123/171 110/130/171
f 44/122/172 66/125/172 94/131/172
f 30/118/191 32/12/191 5/1/191
f 29/117/192 31/11/192 8/54/192
f 43/120/175 67/129/175 111/132/175
f 29/117/176 69/127/176 95/133/176
f 2/124/193 44/122/193 46/7/193
f 3/128/194 43/120/194 45/3/194
f 90/134/195 92/68/195 64/67/195
f 91/136/196 93/69/196 63/71/196
f 108/60/197 62/59/197 58/138/197
f 109/64/198 65/65/198 61/140/198
f 68/123/167 111/132/167 58/138/167
f 66/125/168 110/130/168 59/137/168
f 69/127/169 94/143/169 61/142/169
f 67/129/170 95/133/170 60/135/170
f 110/130/171 68/123/171 91/136/171
f 94/131/172 66/125/172 107/141/172
f 62/59/199 93/69/199 91/136/199
f 65/110/200 92/68/200 90/134/200
f 111/132/175 67/129/175 106/139/175
f 95/133/176 69/127/176 90/134/176
f 59/137/201 63/71/201 109/64/201
f 60/135/202 64/67/202 108/60/202
usemtl Line
f 124/144/203 125/145/203 123/146/203
f 126/147/204 129/148/204 125/145/204
f 130/149/205 127/150/205 129/148/205
f 128/151/206 123/152/206 127/150/206
f 129/148/21 123/153/21 125/154/21
f 126/155/62 128/151/62 130/149/62
f 124/144/203 126/147/203 125/145/203
f 126/147/204 130/149/204 129/148/204
f 130/149/205 128/151/205 127/150/205
f 128/151/206 124/156/206 123/152/206
f 129/148/21 127/150/21 123/153/21
f 126/155/62 124/157/62 128/151/62
